<mxfile host="Electron" modified="2024-05-31T08:12:56.439Z" agent="Mozilla/5.0 (Windows NT 10.0; Win64; x64) AppleWebKit/537.36 (KHTML, like Gecko) draw.io/24.1.0 Chrome/120.0.6099.109 Electron/28.1.0 Safari/537.36" etag="XJJP8HMRpqkH6DHR617Q" version="24.1.0" type="device">
  <diagram name="第 1 页" id="s-9qQ0fX5DLhkZZJcnMz">
    <mxGraphModel dx="737" dy="430" grid="1" gridSize="10" guides="1" tooltips="1" connect="1" arrows="1" fold="1" page="1" pageScale="1" pageWidth="827" pageHeight="1169" math="0" shadow="0">
      <root>
        <mxCell id="0" />
        <mxCell id="1" parent="0" />
        <mxCell id="mZX4rfVBKld4s4bTbGDG-1" value="" style="rounded=1;whiteSpace=wrap;html=1;dashed=1;" parent="1" vertex="1">
          <mxGeometry x="280" y="427.6" width="290" height="122.4" as="geometry" />
        </mxCell>
        <mxCell id="44-4BgY3cbVrO1U2jUA8-1" value="" style="endArrow=none;dashed=1;html=1;dashPattern=1 3;strokeWidth=2;rounded=1;" parent="1" edge="1">
          <mxGeometry width="50" height="50" relative="1" as="geometry">
            <mxPoint x="310" y="550" as="sourcePoint" />
            <mxPoint x="310" y="290" as="targetPoint" />
          </mxGeometry>
        </mxCell>
        <mxCell id="44-4BgY3cbVrO1U2jUA8-38" style="edgeStyle=orthogonalEdgeStyle;rounded=1;orthogonalLoop=1;jettySize=auto;html=1;exitX=1;exitY=0.5;exitDx=0;exitDy=0;" parent="1" source="44-4BgY3cbVrO1U2jUA8-2" target="44-4BgY3cbVrO1U2jUA8-40" edge="1">
          <mxGeometry relative="1" as="geometry">
            <mxPoint x="450" y="304.72413793103453" as="targetPoint" />
          </mxGeometry>
        </mxCell>
        <mxCell id="44-4BgY3cbVrO1U2jUA8-2" value="ICache" style="rounded=1;whiteSpace=wrap;html=1;fillColor=#dae8fc;strokeColor=#6c8ebf;" parent="1" vertex="1">
          <mxGeometry x="285" y="310" width="120" height="25" as="geometry" />
        </mxCell>
        <mxCell id="44-4BgY3cbVrO1U2jUA8-37" style="edgeStyle=orthogonalEdgeStyle;rounded=1;orthogonalLoop=1;jettySize=auto;html=1;exitX=1;exitY=0.5;exitDx=0;exitDy=0;" parent="1" source="44-4BgY3cbVrO1U2jUA8-3" target="44-4BgY3cbVrO1U2jUA8-39" edge="1">
          <mxGeometry relative="1" as="geometry">
            <mxPoint x="450" y="269.72413793103453" as="targetPoint" />
          </mxGeometry>
        </mxCell>
        <mxCell id="44-4BgY3cbVrO1U2jUA8-43" style="edgeStyle=orthogonalEdgeStyle;rounded=1;orthogonalLoop=1;jettySize=auto;html=1;exitX=1;exitY=0.5;exitDx=0;exitDy=0;entryX=0.75;entryY=1;entryDx=0;entryDy=0;" parent="1" source="44-4BgY3cbVrO1U2jUA8-3" target="44-4BgY3cbVrO1U2jUA8-5" edge="1">
          <mxGeometry relative="1" as="geometry">
            <Array as="points">
              <mxPoint x="410" y="350" />
              <mxPoint x="410" y="383" />
              <mxPoint x="242" y="383" />
            </Array>
          </mxGeometry>
        </mxCell>
        <mxCell id="44-4BgY3cbVrO1U2jUA8-44" value="PC+8" style="edgeLabel;html=1;align=center;verticalAlign=middle;resizable=0;points=[];rounded=1;" parent="44-4BgY3cbVrO1U2jUA8-43" vertex="1" connectable="0">
          <mxGeometry x="-0.2858" relative="1" as="geometry">
            <mxPoint x="-60" y="7" as="offset" />
          </mxGeometry>
        </mxCell>
        <mxCell id="44-4BgY3cbVrO1U2jUA8-3" value="PC" style="rounded=1;whiteSpace=wrap;html=1;rotation=0;horizontal=1;verticalAlign=middle;fillColor=#e1d5e7;strokeColor=#9673a6;" parent="1" vertex="1">
          <mxGeometry x="285" y="340" width="50" height="20" as="geometry" />
        </mxCell>
        <mxCell id="44-4BgY3cbVrO1U2jUA8-6" style="edgeStyle=orthogonalEdgeStyle;rounded=1;orthogonalLoop=1;jettySize=auto;html=1;exitX=0.5;exitY=0;exitDx=0;exitDy=0;entryX=0;entryY=0.5;entryDx=0;entryDy=0;" parent="1" source="44-4BgY3cbVrO1U2jUA8-5" target="44-4BgY3cbVrO1U2jUA8-2" edge="1">
          <mxGeometry relative="1" as="geometry">
            <Array as="points">
              <mxPoint x="180" y="413" />
              <mxPoint x="180" y="323" />
              <mxPoint x="285" y="323" />
            </Array>
          </mxGeometry>
        </mxCell>
        <mxCell id="44-4BgY3cbVrO1U2jUA8-17" style="edgeStyle=orthogonalEdgeStyle;rounded=1;orthogonalLoop=1;jettySize=auto;html=1;exitX=0.5;exitY=0;exitDx=0;exitDy=0;entryX=0;entryY=0.5;entryDx=0;entryDy=0;" parent="1" source="44-4BgY3cbVrO1U2jUA8-5" target="44-4BgY3cbVrO1U2jUA8-16" edge="1">
          <mxGeometry relative="1" as="geometry">
            <Array as="points">
              <mxPoint x="180" y="413" />
              <mxPoint x="180" y="480" />
            </Array>
          </mxGeometry>
        </mxCell>
        <mxCell id="44-4BgY3cbVrO1U2jUA8-20" style="edgeStyle=orthogonalEdgeStyle;rounded=1;orthogonalLoop=1;jettySize=auto;html=1;exitX=0.5;exitY=0;exitDx=0;exitDy=0;entryX=0;entryY=0.5;entryDx=0;entryDy=0;" parent="1" source="44-4BgY3cbVrO1U2jUA8-5" target="44-4BgY3cbVrO1U2jUA8-19" edge="1">
          <mxGeometry relative="1" as="geometry">
            <Array as="points">
              <mxPoint x="180" y="413" />
              <mxPoint x="180" y="500" />
            </Array>
          </mxGeometry>
        </mxCell>
        <mxCell id="44-4BgY3cbVrO1U2jUA8-26" style="edgeStyle=orthogonalEdgeStyle;rounded=1;orthogonalLoop=1;jettySize=auto;html=1;exitX=0.5;exitY=1;exitDx=0;exitDy=0;startArrow=classic;startFill=1;endArrow=none;endFill=0;" parent="1" source="44-4BgY3cbVrO1U2jUA8-5" target="44-4BgY3cbVrO1U2jUA8-27" edge="1">
          <mxGeometry relative="1" as="geometry">
            <mxPoint x="410" y="384.99655172413793" as="targetPoint" />
          </mxGeometry>
        </mxCell>
        <mxCell id="44-4BgY3cbVrO1U2jUA8-48" style="edgeStyle=orthogonalEdgeStyle;rounded=1;orthogonalLoop=1;jettySize=auto;html=1;exitX=0.5;exitY=0;exitDx=0;exitDy=0;entryX=0;entryY=0.5;entryDx=0;entryDy=0;" parent="1" source="44-4BgY3cbVrO1U2jUA8-5" target="44-4BgY3cbVrO1U2jUA8-3" edge="1">
          <mxGeometry relative="1" as="geometry">
            <Array as="points">
              <mxPoint x="180" y="413" />
              <mxPoint x="180" y="350" />
            </Array>
          </mxGeometry>
        </mxCell>
        <mxCell id="EYkj4L8LmVKWWjtaRkgE-7" style="edgeStyle=orthogonalEdgeStyle;rounded=1;orthogonalLoop=1;jettySize=auto;html=1;exitX=0;exitY=0.25;exitDx=0;exitDy=0;startArrow=classic;startFill=1;endArrow=none;endFill=0;" parent="1" source="44-4BgY3cbVrO1U2jUA8-5" target="EYkj4L8LmVKWWjtaRkgE-8" edge="1">
          <mxGeometry relative="1" as="geometry">
            <mxPoint x="221.28571428571422" y="540" as="targetPoint" />
          </mxGeometry>
        </mxCell>
        <mxCell id="44-4BgY3cbVrO1U2jUA8-5" value="MUX" style="shape=trapezoid;perimeter=trapezoidPerimeter;whiteSpace=wrap;html=1;fixedSize=1;rotation=-90;rounded=1;fillColor=#d5e8d4;strokeColor=#82b366;" parent="1" vertex="1">
          <mxGeometry x="167.5" y="397.6" width="120" height="30" as="geometry" />
        </mxCell>
        <mxCell id="EYkj4L8LmVKWWjtaRkgE-3" style="edgeStyle=orthogonalEdgeStyle;rounded=1;orthogonalLoop=1;jettySize=auto;html=1;exitX=1;exitY=0.5;exitDx=0;exitDy=0;entryX=0;entryY=0.5;entryDx=0;entryDy=0;" parent="1" source="44-4BgY3cbVrO1U2jUA8-16" target="44-4BgY3cbVrO1U2jUA8-28" edge="1">
          <mxGeometry relative="1" as="geometry" />
        </mxCell>
        <mxCell id="44-4BgY3cbVrO1U2jUA8-16" value="BTB" style="rounded=1;whiteSpace=wrap;html=1;fillColor=#dae8fc;strokeColor=#6c8ebf;" parent="1" vertex="1">
          <mxGeometry x="285" y="470" width="120" height="20" as="geometry" />
        </mxCell>
        <mxCell id="EYkj4L8LmVKWWjtaRkgE-4" style="edgeStyle=orthogonalEdgeStyle;rounded=1;orthogonalLoop=1;jettySize=auto;html=1;exitX=1;exitY=0.5;exitDx=0;exitDy=0;" parent="1" source="44-4BgY3cbVrO1U2jUA8-19" target="44-4BgY3cbVrO1U2jUA8-28" edge="1">
          <mxGeometry relative="1" as="geometry" />
        </mxCell>
        <mxCell id="44-4BgY3cbVrO1U2jUA8-19" value="PHT" style="rounded=1;whiteSpace=wrap;html=1;fillColor=#dae8fc;strokeColor=#6c8ebf;" parent="1" vertex="1">
          <mxGeometry x="285" y="490" width="120" height="20" as="geometry" />
        </mxCell>
        <mxCell id="EYkj4L8LmVKWWjtaRkgE-2" style="edgeStyle=orthogonalEdgeStyle;rounded=1;orthogonalLoop=1;jettySize=auto;html=1;exitX=1;exitY=0.5;exitDx=0;exitDy=0;entryX=0;entryY=0.5;entryDx=0;entryDy=0;" parent="1" source="44-4BgY3cbVrO1U2jUA8-21" target="44-4BgY3cbVrO1U2jUA8-28" edge="1">
          <mxGeometry relative="1" as="geometry" />
        </mxCell>
        <mxCell id="44-4BgY3cbVrO1U2jUA8-21" value="RAS" style="rounded=1;whiteSpace=wrap;html=1;fillColor=#dae8fc;strokeColor=#6c8ebf;" parent="1" vertex="1">
          <mxGeometry x="285" y="450" width="120" height="20" as="geometry" />
        </mxCell>
        <mxCell id="44-4BgY3cbVrO1U2jUA8-27" value="Redirect Target" style="text;html=1;align=center;verticalAlign=middle;whiteSpace=wrap;rounded=1;" parent="1" vertex="1">
          <mxGeometry x="330" y="397.59655172413795" width="60" height="30" as="geometry" />
        </mxCell>
        <mxCell id="44-4BgY3cbVrO1U2jUA8-31" style="edgeStyle=orthogonalEdgeStyle;rounded=1;orthogonalLoop=1;jettySize=auto;html=1;exitX=1;exitY=0.5;exitDx=0;exitDy=0;entryX=0.25;entryY=1;entryDx=0;entryDy=0;" parent="1" source="44-4BgY3cbVrO1U2jUA8-28" target="44-4BgY3cbVrO1U2jUA8-5" edge="1">
          <mxGeometry relative="1" as="geometry">
            <Array as="points">
              <mxPoint x="530" y="480" />
              <mxPoint x="530" y="443" />
              <mxPoint x="351" y="443" />
            </Array>
          </mxGeometry>
        </mxCell>
        <mxCell id="44-4BgY3cbVrO1U2jUA8-32" value="Predict&lt;div&gt;PC&lt;/div&gt;" style="edgeLabel;html=1;align=center;verticalAlign=middle;resizable=0;points=[];rounded=1;labelBackgroundColor=none;" parent="44-4BgY3cbVrO1U2jUA8-31" vertex="1" connectable="0">
          <mxGeometry x="0.3581" y="-2" relative="1" as="geometry">
            <mxPoint x="197" y="19" as="offset" />
          </mxGeometry>
        </mxCell>
        <mxCell id="EYkj4L8LmVKWWjtaRkgE-6" style="edgeStyle=orthogonalEdgeStyle;rounded=1;orthogonalLoop=1;jettySize=auto;html=1;exitX=0.5;exitY=1;exitDx=0;exitDy=0;entryX=0;entryY=0.75;entryDx=0;entryDy=0;" parent="1" source="44-4BgY3cbVrO1U2jUA8-28" target="44-4BgY3cbVrO1U2jUA8-5" edge="1">
          <mxGeometry relative="1" as="geometry">
            <Array as="points">
              <mxPoint x="485" y="525" />
              <mxPoint x="234" y="525" />
            </Array>
          </mxGeometry>
        </mxCell>
        <mxCell id="44-4BgY3cbVrO1U2jUA8-28" value="&lt;div&gt;Predict&lt;/div&gt;Logic" style="ellipse;whiteSpace=wrap;html=1;aspect=fixed;rounded=1;fillColor=#d5e8d4;strokeColor=#82b366;" parent="1" vertex="1">
          <mxGeometry x="460" y="455" width="50" height="50" as="geometry" />
        </mxCell>
        <mxCell id="44-4BgY3cbVrO1U2jUA8-39" value="PC" style="text;html=1;align=center;verticalAlign=middle;whiteSpace=wrap;rounded=1;" parent="1" vertex="1">
          <mxGeometry x="440" y="335.0041379310345" width="60" height="30" as="geometry" />
        </mxCell>
        <mxCell id="44-4BgY3cbVrO1U2jUA8-40" value="Instr" style="text;html=1;align=center;verticalAlign=middle;whiteSpace=wrap;rounded=1;" parent="1" vertex="1">
          <mxGeometry x="440" y="307.5041379310345" width="60" height="30" as="geometry" />
        </mxCell>
        <mxCell id="EYkj4L8LmVKWWjtaRkgE-8" value="重取" style="text;html=1;align=center;verticalAlign=middle;whiteSpace=wrap;rounded=1;" parent="1" vertex="1">
          <mxGeometry x="191.28571428571422" y="525" width="60" height="30" as="geometry" />
        </mxCell>
        <mxCell id="EYkj4L8LmVKWWjtaRkgE-9" value="taken" style="text;html=1;align=center;verticalAlign=middle;whiteSpace=wrap;rounded=0;" parent="1" vertex="1">
          <mxGeometry x="414" y="505" width="60" height="30" as="geometry" />
        </mxCell>
        <mxCell id="EYkj4L8LmVKWWjtaRkgE-10" value="NPC" style="text;html=1;align=center;verticalAlign=middle;whiteSpace=wrap;rounded=0;" parent="1" vertex="1">
          <mxGeometry x="167.5" y="390" width="60" height="30" as="geometry" />
        </mxCell>
        <mxCell id="mZX4rfVBKld4s4bTbGDG-2" value="分支预测器" style="text;html=1;align=center;verticalAlign=middle;whiteSpace=wrap;rounded=0;" parent="1" vertex="1">
          <mxGeometry x="460" y="525" width="80" height="30" as="geometry" />
        </mxCell>
      </root>
    </mxGraphModel>
  </diagram>
</mxfile>
